<?xml version="1.0" standalone="no"?>
<!DOCTYPE svg PUBLIC "-//W3C//DTD SVG 20010904//EN"
 "http://www.w3.org/TR/2001/REC-SVG-20010904/DTD/svg10.dtd">
<svg version="1.0" xmlns="http://www.w3.org/2000/svg"
 width="96.000000pt" height="96.000000pt" viewBox="0 0 96.000000 96.000000"
 preserveAspectRatio="xMidYMid meet">

<g transform="translate(0.000000,96.000000) scale(0.100000,-0.100000)"
fill="#000000" stroke="none">
<path d="M300 735 l0 -75 -75 0 -75 0 0 -255 0 -255 255 0 255 0 0 75 0 75 75
0 75 0 0 255 0 255 -255 0 -255 0 0 -75z m450 -180 l0 -195 -45 0 -45 0 0 150
0 150 -150 0 -150 0 0 45 0 45 195 0 195 0 0 -195z m-150 -150 l0 -195 -195 0
-195 0 0 195 0 195 195 0 195 0 0 -195z"/>
</g>
</svg>
